<svg width="43" height="31" viewBox="0 0 43 31" fill="none" xmlns="http://www.w3.org/2000/svg">
<path fill-rule="evenodd" clip-rule="evenodd" d="M21.14 8.44482C21.4508 8.44482 21.8374 8.63862 22.3031 9.22002L31.375 20.5706C32.8469 22.4148 31.9946 23.8639 30.0591 23.6751H21.14L26.4898 30.5632H37.887C41.3763 30.757 44.163 26.6822 40.6788 22.5111L24.7862 2.71825C23.4611 1.06779 22.3031 0 21.14 0C19.9769 0 18.8118 1.06779 17.4958 2.71825L1.60321 22.5098C-1.88507 26.6809 0.90474 30.7558 4.39403 30.5607H15.7902L21.14 23.6739H12.2239C10.2854 23.8677 9.43209 22.4072 10.908 20.5693L19.9789 9.22002C20.4436 8.63862 20.8323 8.44482 21.142 8.44482" fill="#2A58A3"/>
</svg>
