<svg width="107" height="40" viewBox="0 0 107 40" fill="none" xmlns="http://www.w3.org/2000/svg">
<path d="M31.6212 39.3429H27.6062C25.4691 33.8306 23.3598 28.3556 21.2597 22.9087C19.1597 17.4712 17.0688 11.9869 14.9687 6.47457L1.6282 39.343H0L15.3481 1.38268H17.0318C19.4557 7.73589 21.8796 14.061 24.3034 20.3582C26.7272 26.6552 29.1697 32.9804 31.6212 39.3336" fill="#031C2C"/>
<path d="M51.2527 0.00921155C53.9633 0.00921155 56.4982 0.523064 58.8481 1.54146C61.1979 2.55986 63.261 3.97065 65.028 5.75512L63.4553 7.61433C61.9381 5.75512 60.1248 4.2696 58.034 3.17646C55.9339 2.08333 53.6765 1.53215 51.2527 1.53215C48.8289 1.53215 46.8952 2.00869 44.9062 2.95225C42.9172 3.90522 41.1779 5.19455 39.6977 6.83895C38.2175 8.48326 37.0517 10.4079 36.2006 12.6222C35.3495 14.8271 34.9239 17.2002 34.9239 19.7135C34.9239 22.2267 35.3495 24.5904 36.2006 26.7767C37.0517 28.9723 38.2175 30.8876 39.6977 32.5319C41.1779 34.1762 42.9171 35.475 44.9062 36.4186C46.8952 37.3716 49.0138 37.8387 51.2527 37.8387C53.4915 37.8387 55.462 37.3903 57.3863 36.4934C59.3014 35.5964 60.9944 34.3818 62.4561 32.8496C63.9179 31.3173 65.102 29.5048 66.0086 27.4307C66.9153 25.3473 67.4148 23.1049 67.5259 20.6945H51.2527V19.1623H70.7824V19.7135C70.7824 22.4137 70.2643 24.9643 69.2374 27.3561C68.2104 29.7479 66.8135 31.8407 65.065 33.6252C63.3072 35.419 61.2534 36.8298 58.8851 37.8668C56.5167 38.9039 53.9725 39.4271 51.2619 39.4271C48.5513 39.4271 46.0071 38.9039 43.6387 37.8668C41.2704 36.8297 39.2073 35.4096 37.4588 33.6252C35.701 31.8407 34.3134 29.7479 33.2864 27.3561C32.2595 24.9643 31.7414 22.4137 31.7414 19.7135C31.7414 17.0134 32.2595 14.4068 33.2864 12.015C34.3134 9.62321 35.7102 7.53969 37.4588 5.77393C39.2166 3.99876 41.2704 2.59737 43.6387 1.56026C46.0071 0.523158 48.5513 0 51.2619 0" fill="#031C2C"/>
<path d="M74.9641 1.38259H87.657C90.2289 1.38259 92.6435 1.88713 94.9285 2.88682C97.2044 3.89582 99.1935 5.25058 100.896 6.96972C102.598 8.68886 103.939 10.6975 104.939 12.9959C105.938 15.2942 106.428 17.7608 106.428 20.3861C106.428 23.0114 105.928 25.478 104.939 27.7763C103.939 30.0746 102.598 32.0834 100.896 33.8025C99.1934 35.5216 97.2044 36.8763 94.9285 37.8854C92.6527 38.8943 90.2288 39.3896 87.657 39.3896H74.9641V1.38259ZM78.7016 2.91484V37.8573H85.8622C88.2491 37.8573 90.4787 37.3995 92.5603 36.484C94.6418 35.5683 96.4644 34.3164 98.0371 32.7281C99.6098 31.1398 100.85 29.2899 101.756 27.1691C102.663 25.0483 103.116 22.7873 103.116 20.3768C103.116 17.9663 102.663 15.7053 101.756 13.5845C100.85 11.4636 99.6098 9.61371 98.0371 8.02544C96.4644 6.43716 94.6418 5.18515 92.5603 4.2696C90.4787 3.35395 88.2491 2.89622 85.8622 2.89622H78.7016V2.91484Z" fill="#031C2C"/>
</svg>
