<svg width="33" height="33" viewBox="0 0 33 33" fill="none" xmlns="http://www.w3.org/2000/svg">
<path d="M2.94545 29.4545H0V20.6182H8.83636V23.5636H5.184C7.55509 27.1129 11.6051 29.4545 16.2 29.4545C19.7153 29.4545 23.0867 28.0581 25.5724 25.5724C28.0581 23.0867 29.4545 19.7153 29.4545 16.2H32.4C32.4 25.1542 25.1542 32.4 16.2 32.4C10.7215 32.4 5.87618 29.6755 2.94545 25.5224V29.4545ZM0 16.2C0 7.24582 7.24582 0 16.2 0C21.6785 0 26.5238 2.72455 29.4545 6.87764V2.94545H32.4V11.7818H23.5636V8.83636H27.216C24.8449 5.28709 20.7949 2.94545 16.2 2.94545C12.6847 2.94545 9.31333 4.34191 6.82762 6.82762C4.34191 9.31333 2.94545 12.6847 2.94545 16.2H0Z" fill="#DBF227"/>
</svg>
